:SAMPLES-PER-SECOND 30
:FULLY-SPECIFIED
:DEGREES
487
root  7.04573 35.5881 0.49856 -119.779 -79.9216 127.989
RightUpLeg  -33.9868 -6.91824 -31.5614
RightLeg  18.5757 -0.827507 -0.507585
RightFoot  10.5687 -4.86959 25.1666
RightToes  -2.32832e-010 0 -3.6325e-017
Spine  29.2365 -8.05378 -12.327
Spine1  -5.71455 -10.3966 -3.30004
HEad  -39.8782 21.5097 -7.59977
LeftShoulder1  1.05102 -1.49907 -14.0732
LeftArm  -47.1412 -17.1093 -35.855
LeftForeArm  -50.4697 -35.6368 -10.1785
LeftHand  0.193672 -4.00575 -2.12542
RightShoulder  0.487781 -1.03235 12.8445
RightArm  -31.9123 -33.4114 47.954
RightForeArm  -26.6692 12.4591 5.9493
RightHand  -0.470618 2.38173 -7.22525
LeftUpLeg  -21.7984 22.6715 14.6323
LeftLeg  25.2618 -0.101956 0.289461
LeftFoot  -3.98277 2.25359 -33.7381
LeftToes  2.2737e-010 4.38529e-011 2.18788e-011
488
root  6.94706 35.7576 0.666826 -120.713 -79.5196 128.895
RightUpLeg  -32.6457 -7.16831 -31.8273
RightLeg  16.0888 -0.598882 -0.427748
RightFoot  11.4259 -5.08418 25.2762
RightToes  -2.32832e-010 0 -3.6325e-017
Spine  27.8474 -8.27217 -10.9594
Spine1  -3.25334 -9.98389 -4.81216
HEad  -40.8682 20.7723 -8.86396
LeftShoulder1  1.10038 -1.61652 -14.6047
LeftArm  -48.3089 -19.0436 -36.6134
LeftForeArm  -50.3689 -36.2269 -10.3622
LeftHand  0.172673 -3.81124 -1.91922
RightShoulder  0.514853 -0.898272 12.862
RightArm  -30.8286 -32.7354 46.814
RightForeArm  -25.9166 11.8584 6.22032
RightHand  -0.52656 2.3228 -8.11959
LeftUpLeg  -20.9589 18.9917 14.3815
LeftLeg  24.3428 3.29235 1.97161
LeftFoot  -3.47879 2.39211 -33.599
LeftToes  2.2737e-010 4.38529e-011 2.18788e-011
489
root  6.81766 35.9553 0.424249 -131.771 -80.1531 140.241
RightUpLeg  -32.3868 -7.0533 -28.7979
RightLeg  14.4951 0.0747473 -0.428505
RightFoot  11.9049 -5.13058 24.9883
RightToes  -2.32832e-010 0 -3.6325e-017
Spine  26.549 -7.24838 -10.5356
Spine1  -1.72194 -8.9217 -3.2852
HEad  -40.7076 20.9854 -9.16563
LeftShoulder1  1.136 -1.77289 -14.6492
LeftArm  -48.7049 -19.1351 -38.0705
LeftForeArm  -50.2603 -36.9978 -10.607
LeftHand  0.166837 -3.77774 -1.86639
RightShoulder  0.563081 -0.677734 13.0339
RightArm  -29.6827 -32.4345 45.5497
RightForeArm  -27.1665 11.7823 6.41716
RightHand  -0.552663 2.21392 -8.62353
LeftUpLeg  -19.6572 16.0319 16.9764
LeftLeg  22.9924 7.25516 3.6908
LeftFoot  -2.03451 2.76739 -32.9885
LeftToes  2.2737e-010 4.38529e-011 2.18788e-011
490
root  6.68169 36.1538 -0.181756 -150.169 -80.5991 159.047
RightUpLeg  -32.8445 -7.23429 -23.7985
RightLeg  13.9952 1.47048 -0.239767
RightFoot  11.9754 -5.03878 24.4879
RightToes  -2.32832e-010 0 -3.6325e-017
Spine  25.7813 -5.8425 -10.9729
Spine1  -1.90657 -7.91222 -0.501479
HEad  -38.9011 22.2791 -7.76144
LeftShoulder1  1.09877 -1.69398 -14.2182
LeftArm  -48.1341 -17.7132 -39.0698
LeftForeArm  -50.3379 -37.5769 -10.7984
LeftHand  0.169238 -3.88993 -1.89411
RightShoulder  0.628375 -0.403256 13.3973
RightArm  -28.7453 -33.0575 44.8132
RightForeArm  -27.8252 12.2637 6.59167
RightHand  -0.534051 2.29178 -8.26198
LeftUpLeg  -17.3818 15.3582 21.1166
LeftLeg  20.1137 9.9245 4.3653
LeftFoot  0.110064 3.38504 -32.8967
LeftToes  2.2737e-010 4.38529e-011 2.18788e-011
491
root  6.5405 36.2846 -0.966425 -175.495 -80.9273 -174.766
RightUpLeg  -33.4804 -7.3998 -17.6157
RightLeg  14.3219 2.02899 0.028752
RightFoot  11.5999 -4.87238 24.0886
RightToes  -2.32832e-010 0 -3.6325e-017
Spine  25.2049 -4.90194 -11.107
Spine1  -2.98832 -7.56601 3.8131
HEad  -36.4488 24.2845 -5.94689
LeftShoulder1  0.990066 -1.32632 -13.508
LeftArm  -47.3428 -15.5993 -39.4061
LeftForeArm  -50.3443 -38.1046 -10.9747
LeftHand  0.170545 -4.00792 -1.8372
RightShoulder  0.708649 -0.0958845 13.9781
RightArm  -27.9074 -34.0974 44.0465
RightForeArm  -27.4352 13.3825 6.68553
RightHand  -0.493235 2.44189 -7.51003
LeftUpLeg  -15.4279 16.732 26.6012
LeftLeg  16.3101 10.2046 4.0606
LeftFoot  2.37383 4.11685 -33.4492
LeftToes  2.2737e-010 4.38529e-011 2.18788e-011
492
root  6.42564 36.2699 -1.74823 150.6 -80.157 -139.596
RightUpLeg  -34.0206 -7.49529 -10.486
RightLeg  15.1608 1.22714 0.0984577
RightFoot  10.7651 -4.6516 23.8822
RightToes  -2.32832e-010 0 -3.6325e-017
Spine  25.1321 -4.58018 -10.5347
Spine1  -4.53134 -8.04894 10.6079
HEad  -34.3287 26.7025 -5.14827
LeftShoulder1  0.860992 -0.877586 -12.5755
LeftArm  -47.0835 -13.0008 -39.8847
LeftForeArm  -50.2678 -39.1308 -11.3254
LeftHand  0.173641 -3.98256 -1.88534
RightShoulder  0.738084 0.021784 14.1314
RightArm  -27.0047 -34.6091 42.9406
RightForeArm  -27.4053 14.3601 6.71252
RightHand  -0.472537 2.45431 -7.19391
LeftUpLeg  -15.3072 19.1699 33.3218
LeftLeg  13.5175 7.95769 3.53592
LeftFoot  4.04813 4.67715 -33.8728
LeftToes  2.2737e-010 4.38529e-011 2.18788e-011
493
root  6.38899 36.1153 -2.41893 120.552 -77.1853 -108.613
RightUpLeg  -34.1635 -7.99214 -3.71602
RightLeg  16.4198 -0.283848 -0.0753821
RightFoot  9.52925 -4.40043 23.9369
RightToes  -2.32832e-010 0 -3.6325e-017
Spine  26.4109 -4.55431 -10.3818
Spine1  -6.4508 -9.16951 19.5883
HEad  -33.0429 29.259 -5.56745
LeftShoulder1  0.788767 -0.699505 -11.6055
LeftArm  -47.7827 -10.0904 -40.807
LeftForeArm  -50.3071 -40.7581 -11.9082
LeftHand  0.18507 -3.80253 -2.07862
RightShoulder  0.639934 -0.340298 13.3313
RightArm  -26.8639 -34.0275 42.0138
RightForeArm  -28.0945 14.8112 6.60679
RightHand  -0.487082 2.29213 -7.55378
LeftUpLeg  -17.0392 19.6069 40.1702
LeftLeg  12.7103 5.76391 3.14461
LeftFoot  4.8802 4.88593 -33.5872
LeftToes  2.2737e-010 4.38529e-011 2.18788e-011
494
root  6.43964 35.9063 -2.88155 102.065 -73.8551 -89.9951
RightUpLeg  -33.9788 -9.27592 0.926614
RightLeg  18.1594 -1.62566 -0.547535
RightFoot  8.07817 -4.15028 24.2515
RightToes  -2.32832e-010 0 -3.6325e-017
Spine  28.6356 -4.50984 -11.3017
Spine1  -7.56073 -10.5943 28.5838
HEad  -33.4785 31.2363 -6.79736
LeftShoulder1  0.821433 -0.99969 -11.0174
LeftArm  -49.2444 -8.26335 -41.4448
LeftForeArm  -50.1452 -42.1858 -12.4401
LeftHand  0.178266 -3.68523 -2.02755
RightShoulder  0.468831 -1.08029 12.4279
RightArm  -28.3227 -32.6381 41.7508
RightForeArm  -29.2565 16.0441 6.20184
RightHand  -0.503611 1.98768 -8.10202
LeftUpLeg  -19.6907 16.6228 45.4376
LeftLeg  13.4392 5.53726 2.76369
LeftFoot  5.03203 4.8131 -32.8235
LeftToes  2.2737e-010 4.38529e-011 2.18788e-011
495
root  6.52674 35.745 -3.03226 91.2946 -72.2029 -79.4093
RightUpLeg  -33.9185 -10.233 2.25291
RightLeg  19.9126 -2.99773 -1.33999
RightFoot  6.9283 -3.96203 24.5893
RightToes  -2.32832e-010 0 -3.6325e-017
Spine  30.0364 -4.36085 -12.3718
Spine1  -6.6285 -11.9671 34.2893
HEad  -36.3177 31.7734 -8.46443
LeftShoulder1  0.929145 -1.5953 -10.997
LeftArm  -50.5001 -9.06109 -41.2377
LeftForeArm  -49.6722 -42.4427 -12.5311
LeftHand  0.147691 -3.76854 -1.61541
RightShoulder  0.357329 -1.6633 12.5564
RightArm  -31.1205 -31.4049 42.3145
RightForeArm  -30.6795 18.8658 5.85005
RightHand  -0.502503 1.6189 -8.47978
LeftUpLeg  -22.3417 13.0091 47.7142
LeftLeg  14.8151 6.16529 2.38213
LeftFoot  4.71236 4.65682 -32.4143
LeftToes  2.2737e-010 4.38529e-011 2.18788e-011
